<svg xmlns="http://www.w3.org/2000/svg" viewBox="0 0 512 512"><path fill="#E6E7E8" d="M280.4 355.1H140.2c-19.7 0-35.7-16-35.7-35.7V111.3c0-19.7 16-35.7 35.7-35.7h140.2c19.7 0 35.7 16 35.7 35.7v208.2c0 19.7-16 35.6-35.7 35.6z"/><path fill="#414042" d="M280.4 363.7H140.2c-24.4 0-44.3-19.9-44.3-44.3V111.3c0-24.4 19.9-44.3 44.3-44.3h140.2c24.4 0 44.3 19.9 44.3 44.3v208.2c0 24.4-19.9 44.2-44.3 44.2zM140.2 84.2c-14.9 0-27 12.1-27 27v208.2c0 14.9 12.1 27 27 27h140.2c14.9 0 27-12.1 27-27V111.3c0-14.9-12.1-27-27-27H140.2z"/><path fill="#D04527" d="M152.1 156.2c-8.8 0-16-7.2-16-16v-7.5h-5.2v-7.5h19v7.5h-5.4s-.1 1 0 6.8c0 4.2 3.5 7.7 7.7 7.7 2.7 0 5.2-1.4 6.6-3.7 1.1-1.8 1.1-3.8 1.1-5.6v-33.8h-7.2v-7.5h25.9v7.5h-7.8V138c0 2.4-.1 4.4-.4 5.9-1.6 8.4-9.4 12.3-15.9 12.3h-2.4zM272.9 236c6.9-7.3 10.9-17.6 10.3-28.8-1-19.3-16.1-34.8-34.5-35.8s-33.9 12.3-37.6 30.1c-3.6-17.8-19.2-31-37.5-30.1-18.3.9-33.3 16.2-34.5 35.3-.7 10.2 2.5 19.6 8.1 26.7l53.3 78.3c5.3 7.2 15.7 7.2 20.9 0l51.5-75.7z"/><path fill="#E6E7E8" d="M320.1 370.8l-131.4-49c-18.5-6.9-27.8-27.4-21-45.9l72.7-195.1c6.9-18.5 27.4-27.8 45.9-21l131.4 49c18.5 6.9 27.8 27.4 21 45.9L366 349.8c-6.9 18.5-27.5 27.9-45.9 21z"/><path fill="#414042" d="M332.5 381.7c-5.3 0-10.5-.9-15.5-2.8l-131.4-49c-11.1-4.1-19.9-12.3-24.8-23.1-4.9-10.8-5.3-22.8-1.2-33.9l72.7-195.1c6.4-17.2 23.1-28.8 41.5-28.8 5.3 0 10.5.9 15.5 2.8l131.4 49c11.1 4.1 19.9 12.3 24.8 23.1 4.9 10.8 5.3 22.8 1.2 33.9L374 352.9c-6.4 17.2-23.1 28.8-41.5 28.8zM273.9 66.3c-11.2 0-21.4 7.1-25.3 17.6L175.8 279c-2.5 6.8-2.3 14.1.7 20.7s8.4 11.6 15.2 14.1l131.4 49c3.1 1.1 6.2 1.7 9.4 1.7 11.2 0 21.4-7.1 25.3-17.6l72.7-195.1c2.5-6.8 2.3-14.1-.7-20.7s-8.4-11.6-15.2-14.1L283.3 68c-3.1-1.1-6.2-1.7-9.4-1.7z"/><path fill="#414042" d="M351.6 241.9s-17.6-36.5-23.4-69c-1.3-7.5-10.3-10.9-16.3-6.1-25.6 20.8-62.8 36.8-62.8 36.8-12.9 5.3-22.4 18.8-19.9 36.8.7 5 2.9 9.8 6.3 13.6 14.4 16.2 35.3 15.3 47.9 3.9-4.5 9.3-13.1 24.4-25.1 33.5-3.7 2.8-2.9 8.5 1.4 10.1l9.9 3.7 9.9 3.7c4.3 1.6 8.6-2.2 7.7-6.7-3.1-14.7.3-31.7 3-41.7 2 16.8 17.2 31.2 38.7 28.4 5-.7 9.8-2.8 13.6-6.2 13.7-11.9 15.4-28.3 9.1-40.8zm-70.1-97.5l3.2-8.7 5.4 2-.2-16.9-14.2-5.3-11 12.8 6.5 2.4-3.2 8.7-22.1-8.2 3.2-8.7 6.3 2.4 11-12.8-4.1-1.5 3.2-8.7 7.4 2.7 18.4-21.3 7.5 2.8.3 28.3 7.7 2.9-3.2 8.7-4.3-1.6.2 16.9 7.3 2.7-3.2 8.7-22.1-8.3zm8.3-33.5l-.1-11.5-7.5 8.7 7.6 2.8z"/><path fill="#414042" d="M298.1 142.2l-.2-19.9 4.9 1.8 2.3-6.1-7.3-2.7-.3-28.3-5.7-2.1-18.4 21.3-7-2.6-2.3 6.1 4.7 1.8-12.9 15-5.9-2.2-2.3 6.1 19.5 7.3 2.3-6.1-7-2.6 12.9-15 16 5.9.2 19.9-6-2.2-2.3 6.1 19.5 7.3 2.3-6.1-7-2.7zm-18.2-33.6l11.2-13 .2 17.2-11.4-4.2z"/><g><path fill="#E6E7E8" d="M371.4 419.9l-9.3-9.8 8.8-7.5h8.7v-15.7l34.6-.1-.1-25.6h-8.2l-9.3-9.8 8.8-7.5h8.7l-.1-25.6-67.2.2v9.3l-7-5.1c-4-2.9-8.7-4.4-13.6-4.4h-26.5c-12.3 0-22.3 9.4-22.3 20.9v5.3l-8.4 1.7-10.8-26h-22.7l-13.6 31.9h-34.1v-31.6h-42.1v4.3l-6-2.5c-3.1-1.2-6.5-1.9-10.3-1.9H79.7v26.2h6.4v14h-6.4V387h51.1c3.3 0 6.5-.4 9.3-1.2l4.7-1.4v16.4h-30.6v25.8h4.4l1.1 2.8c3.6 9.2 12.3 15.1 22.1 15.1h15.9c4.2 0 8.4-1.1 12-3.3l6.6-3.9v7.5h77.5v-3l6 2.3c2.7 1.1 5.6 1.6 8.6 1.6h26.5c3.9 0 7.8-1 11.2-2.8l6.5-3.5v6.4l67.2-.2-.1-25.6-8.3-.1zm-183.3-25v-7.8h11.7l-3.3 7.8h-8.4zm57.9 8h-9l-6.7-15.8h19c-2.1 3.2-3.3 6.9-3.3 10.9v4.9zm40.6 13.5h-10.1v-10.1h10.1v10.1z"/><path fill="#414042" d="M414 318.5l.1 25.6h-8.7l-8.8 7.5 9.3 9.8h8.2l.1 25.6-34.6.1v15.7h-8.7l-8.8 7.5 9.3 9.8h8.2l.1 25.6-67.2.2v-6.4L306 443c-3.4 1.9-7.3 2.8-11.2 2.8h-26.5c-2.9 0-5.8-.5-8.6-1.6l-6-2.3v3h-77.5v-7.5l-6.6 3.9c-3.7 2.2-7.8 3.3-12 3.3h-15.9c-9.8 0-18.5-5.9-22.1-15.1l-1.1-2.8h-4.4v-25.8h30.6v-16.4l-4.7 1.4c-2.8.8-6 1.2-9.3 1.2h-51v-26.2h6.4v-14h-6.4v-26.2h49.6c3.8 0 7.2.6 10.3 1.9l6 2.5v-4.3h42.1v31.6h34.1l13.6-31.9h22.7l10.8 26 8.4-1.7v-5.3c0-11.5 10-20.9 22.3-20.9h26.5c5 0 9.7 1.5 13.6 4.4l7 5.1v-9.3l67.3-.3m-177 84.4h9v-5c0-4 1.2-7.7 3.3-10.9h-19l6.7 15.9m-48.9-8h8.4l3.3-7.8h-11.7v7.8m88.4 21.5h10.1v-10.1h-10.1v10.1M414 301.3l-67.2.2c-2.8 0-5.5.7-7.8 1.9-4.1-1.3-8.4-2-12.7-2h-26.5c-10.4 0-19.8 3.8-26.8 10.1-3.1-5.1-8.7-8.4-14.8-8.4h-22.7c-6.9 0-13.2 4.1-15.9 10.5l-9.1 21.4H205v-14.3c0-9.5-7.7-17.2-17.2-17.2h-42.1c-2.2 0-4.2.4-6.1 1.1-3.3-.7-6.7-1.1-10.3-1.1H79.7c-9.5 0-17.2 7.7-17.2 17.2v26.2c0 2.5.5 4.9 1.5 7-1 2.1-1.5 4.5-1.5 7V387c0 9.5 7.7 17.2 17.2 17.2H97v22.4c0 6.9 4.1 12.9 9.9 15.6 7.4 12 20.4 19.5 34.9 19.5h15.9c3.7 0 7.3-.5 10.9-1.5 2.3 1.2 5 1.8 7.8 1.8h77.5c1.4 0 2.7-.2 4-.5 3.4.9 6.9 1.4 10.5 1.4h26.5c3.6 0 7.2-.5 10.7-1.4 2.2 1 4.5 1.5 6.9 1.5l67.2-.2c4.6 0 8.9-1.8 12.2-5.1 3.2-3.2 5-7.6 5-12.2l-.1-25.6c0-3.1-.9-6.1-2.3-8.6 1.2-2.1 2-4.5 2.2-7h17.5c4.6 0 8.9-1.8 12.2-5.1 3.2-3.2 5-7.6 5-12.2l-.1-25.6c0-3-.8-6-2.3-8.6 1.5-2.5 2.3-5.5 2.3-8.6l-.1-25.6c0-4.6-1.8-8.9-5.1-12.2-3.2-3.3-7.6-5.1-12.1-5.1z"/><path fill="#D04527" d="M137.7 352.2c1.7-1 3-2.3 3.9-3.7 1-1.7 1.5-3.8 1.5-6.4 0-8.5-4.6-12.7-13.7-12.7H88.6v8.6H95v31.6h-6.4v8.6h42.2c6.2 0 10.7-1.7 13.7-5 2.1-2.3 3.1-5.3 3.1-8.9 0-2.8-.6-5.3-1.9-7.4-1.5-2.3-4.1-3.8-8-4.7zM107.6 339h17.8c1.2 0 2.1.1 2.8.4 2 .7 3 2.2 3 4.4 0 1.3-.4 2.3-1.1 3.2-1 1.1-2.5 1.6-4.7 1.6h-17.8V339zm25.1 28.4c-1.3.8-3.5 1.1-6.8 1.1h-18.3v-10.3h18.1c2.3 0 3.9.1 4.8.2 2.9.5 4.4 2.2 4.4 5 0 1.8-.7 3.2-2.2 4zM196.5 361v8.6h-23.2V338h5.7v-8.6h-24.5v8.6h6.1v31.6h-6.1v8.7h51.3V361zM252.3 329.1h-11.1l-17.4 41h-7.1v8.2h25.8v-8.2h-5.6l1.6-3.3h17l1.3 3.3H251v8.2H276.8v-8.2h-7.3l-17.2-41zM240.7 360l5.9-15.7 5.9 15.7h-11.8zm85.5-32.7h-26.5c-7.5 0-13.5 5.4-13.5 12.1v26.9c0 6.7 6.1 12.1 13.5 12.1h26.5c7.5 0 13.5-5.4 13.5-12.1v-5.9h-12.9v5.9c0 .2-.2.4-.6.4h-26.5c-.4 0-.6-.2-.6-.4v-26.9c0-.2.2-.4.6-.4h26.5c.4 0 .6.2.6.4v6.2h12.9v-6.2c0-6.7-6-12.1-13.5-12.1zM402.1 370.1l-18.3-19.2 18.3-15.5h3.1v-2.7l.2-.1h-.2v-5.3l-21.2.1.1 8h3l-15.9 13.5v-13.4l5.6-.1v-8h-21.2v8.1h3.6v34.8h-3.5v8h21.2v-8.1h-5.7v-8.6l4.6-3.9 11.5 12.5h-3.2l.1 8.1 21.2-.1-.1-8.1zM220.6 386.8h-11.1l-17.4 41H185v8.2H210.9v-8.2h-5.6l1.6-3.3h17l1.3 3.3h-5.8v8.2H245.2v-8.2h-7.3l-17.3-41zm-11.5 30.9L215 402l5.9 15.7h-11.8zm85.7-31.8h-26.5c-7.5 0-13.5 5.4-13.5 12.1v26.9c0 6.7 6.1 12.1 13.5 12.1h26.5c7.5 0 13.5-5.4 13.5-12.1V419h-12.9v5.9c0 .2-.2.4-.6.4h-26.5c-.4 0-.6-.2-.6-.4V398c0-.2.2-.4.6-.4h26.5c.4 0 .6.2.6.4v6.2h12.9V398c0-6.7-6-12.1-13.5-12.1zM367.6 428.7h.1l-18.4-19.2 18.3-15.5 3.2-.1v-2.6l.1-.1h-.1l-.1-5.3h-21.2l.1 8.1h3l-15.9 13.5V394h5.6v-8h-21.2v8.1h3.6v34.7h-3.5v8.1l21.2-.1v-8h-5.7v-8.6l4.6-3.9 11.5 12.5h-3.1v8h21.2l-.1-8.1zM153.6 387.1h25.8v8.2h-25.8zM123 409.6h20v8.2h-20z"/><path fill="#D04527" d="M157.6 435.7h-15.9c-8.3 0-15-6.7-15-15v-5.2h12.4v5.2c0 1.5 1.2 2.6 2.6 2.6h15.9c1.5 0 2.6-1.2 2.6-2.6v-30.9h12.4v30.9c.1 8.2-6.7 15-15 15z"/></g></svg>