<?xml version="1.0" encoding="iso-8859-1"?>
<!-- Generator: Adobe Illustrator 19.0.0, SVG Export Plug-In . SVG Version: 6.00 Build 0)  -->
<svg version="1.1" id="Layer_1" xmlns="http://www.w3.org/2000/svg" xmlns:xlink="http://www.w3.org/1999/xlink" x="0px" y="0px"
	 viewBox="0 0 512 512" style="enable-background:new 0 0 512 512;" xml:space="preserve">
<path style="fill:#666666;" d="M398.885,424.4v79.029H113.122V424.4v-24.183c0-36.995,18.663-69.635,47.098-88.995
	c10.503-7.143,22.332-12.492,35.052-15.577c0.229-0.057,0.48-0.103,0.709-0.171c17.143,11.543,37.783,18.274,60.012,18.274
	s42.869-6.732,60.012-18.274c0.24,0.069,0.48,0.114,0.709,0.171c12.72,3.086,24.549,8.434,35.052,15.577
	c28.446,19.36,47.12,52,47.12,88.995L398.885,424.4L398.885,424.4z"/>
<path style="fill:#F9E0CD;" d="M363.593,178.798v27.349c0,1.737-0.046,3.463-0.126,5.189c-1.646,34.755-19.783,65.189-46.755,83.658
	c-0.229,0.171-0.469,0.331-0.709,0.48c-17.143,11.543-37.783,18.274-60.012,18.274s-42.869-6.732-60.012-18.274
	c-0.229-0.149-0.48-0.309-0.709-0.48c-26.972-18.469-45.109-48.903-46.755-83.658c-0.08-1.726-0.126-3.451-0.126-5.189v-27.349
	v-32.515v-22.08l1.714,0.469c56.103,15.246,116.07-0.697,157.179-41.806c0,0,1.611,8.709,9.452,19.154
	c7.852,10.434,21.92,22.583,46.858,29.475v14.789L363.593,178.798L363.593,178.798z"/>
<path style="fill:#666666;" d="M363.593,116.18v15.314c-24.937-6.891-39.006-19.04-46.858-29.475
	c-7.84-10.446-9.452-19.154-9.452-19.154c-41.109,41.109-101.075,57.052-157.179,41.806l-1.714-0.469v-8.023
	c0-59.429,48.172-107.612,107.601-107.612c29.715,0,56.618,12.046,76.081,31.52C351.547,59.563,363.593,86.466,363.593,116.18z"/>
<g>
	<path style="fill:#E8CFBF;" d="M148.391,206.147c0,1.737,0.046,3.463,0.126,5.189c-14.092-4.103-24.389-17.132-24.389-32.549
		c0-15.36,10.229-28.366,24.263-32.503v32.515V206.147z"/>
	<path style="fill:#E8CFBF;" d="M363.604,146.284c14.023,4.137,24.263,17.143,24.263,32.503c0,15.417-10.297,28.446-24.389,32.549
		h-0.011c0.08-1.726,0.126-3.451,0.126-5.189v-27.349v-32.515C363.593,146.284,363.604,146.284,363.604,146.284z"/>
</g>
<path style="fill:#4D4D4D;" d="M142.837,400.217c0-36.995,18.663-69.635,47.098-88.995c5.296-3.602,10.93-6.744,16.846-9.374
	c-3.729-1.922-7.339-4.046-10.799-6.375c-0.229,0.069-0.48,0.114-0.709,0.171c-12.72,3.086-24.549,8.434-35.052,15.577
	c-28.435,19.36-47.098,52-47.098,88.995V424.4v79.029h29.715V424.4v-24.183H142.837z"/>
<path style="fill:#E8CFBF;" d="M272.564,312.479c-5.394,0.834-10.937,1.269-16.572,1.269c-22.229,0-42.869-6.732-60.012-18.274
	c-0.229-0.149-0.48-0.309-0.709-0.48c-26.972-18.469-45.109-48.903-46.755-83.658c-0.08-1.726-0.126-3.451-0.126-5.189v-81.944
	l1.714,0.469c10.4,2.823,20.914,4.571,31.429,5.291v76.184c0,1.737,0.046,3.463,0.126,5.189
	c1.646,34.755,19.783,65.189,46.755,83.658c0.229,0.171,0.48,0.331,0.709,0.48C241.923,304.091,256.666,310.022,272.564,312.479z"/>
<path style="fill:#4D4D4D;" d="M272.598,9.837c-51.578,7.954-91.064,52.538-91.064,106.344v13.783
	c-10.514-0.72-21.029-2.469-31.429-5.291l-1.714-0.469v-8.023c0-59.429,48.172-107.612,107.601-107.612
	C261.638,8.568,267.181,9.002,272.598,9.837z"/>
<g>
	<polygon style="fill:#F95428;" points="255.994,368.998 209.905,386.83 209.905,336.574 255.994,354.407 	"/>
	<polygon style="fill:#F95428;" points="255.994,368.998 302.084,386.83 302.084,336.574 255.994,354.407 	"/>
</g>
<g>
	<path style="fill:#333333;" d="M198.443,186.554h34.749c3.192,0,5.787,2.597,5.787,5.787v20.495c0,4.734,3.837,8.572,8.572,8.572
		s8.572-3.838,8.572-8.572v-20.495c0-12.644-10.287-22.93-22.93-22.93h-34.749c-4.735,0-8.572,3.838-8.572,8.572
		C189.871,182.716,193.709,186.554,198.443,186.554z"/>
	<path style="fill:#333333;" d="M284.365,186.554h29.18c4.735,0,8.572-3.838,8.572-8.572c0-4.734-3.837-8.572-8.572-8.572h-29.18
		c-4.735,0-8.572,3.838-8.572,8.572C275.793,182.716,279.63,186.554,284.365,186.554z"/>
	<path style="fill:#333333;" d="M232.832,255.798c0,4.734,3.837,8.571,8.572,8.571h29.181c4.735,0,8.572-3.838,8.572-8.571
		c0-4.734-3.837-8.572-8.572-8.572h-29.181C236.668,247.226,232.832,251.064,232.832,255.798z"/>
	<path style="fill:#333333;" d="M415.886,494.857h-8.432v-94.643c0-38.481-19.015-74.398-50.863-96.075
		c-7.11-4.839-14.654-8.83-22.546-11.956c21.341-19.368,34.773-46.003,37.572-74.765c14.87-6.825,24.824-21.933,24.824-38.627
		c0-16.47-9.712-31.428-24.27-38.371v-24.245C372.17,52.116,320.053,0,255.994,0S139.818,52.116,139.818,116.176v24.246
		c-14.557,6.944-24.266,21.902-24.266,38.369c0,16.693,9.953,31.799,24.821,38.625c2.799,28.763,16.231,55.397,37.572,74.766
		c-7.893,3.125-15.437,7.117-22.546,11.956c-31.841,21.672-50.852,57.588-50.852,96.075v94.643h-8.152
		c-4.735,0-8.572,3.838-8.572,8.572c0,4.734,3.837,8.572,8.572,8.572h319.492c4.735,0,8.572-3.838,8.572-8.572
		C424.457,498.695,420.621,494.857,415.886,494.857z M379.297,178.791c0,6.685-2.688,12.932-7.127,17.557v-35.11
		C376.609,165.864,379.297,172.114,379.297,178.791z M255.994,17.143c54.607,0,99.033,44.427,99.033,99.033v3.44
		c-33.813-13.368-39.104-37.272-39.317-38.311c-0.579-3.13-2.846-5.682-5.885-6.626c-3.046-0.945-6.353-0.127-8.605,2.125
		c-37.709,37.71-92.588,53.099-144.258,40.765v-1.392C156.961,61.57,201.387,17.143,255.994,17.143z M139.818,161.241v35.103
		c-4.438-4.624-7.123-10.87-7.123-17.553C132.695,172.115,135.382,165.868,139.818,161.241z M156.961,206.149v-71.015
		c52.061,11.112,106.61-2.843,146.912-37.435c6.434,12.266,20.647,30.041,51.154,40.152v68.298
		c0,32.119-15.565,62.182-41.726,80.773c-0.473,0.336-2.987,2.053-3.446,2.35c-16.037,10.414-34.623,15.91-53.861,15.91
		c-19.241,0-37.831-5.498-53.823-15.884c-0.454-0.295-3.158-2.143-3.703-2.531C172.439,268.164,156.961,238.178,156.961,206.149z
		 M247.423,363.122l-28.945,11.2v-25.24l28.945,11.199V363.122z M264.566,360.281l28.947-11.2v25.241l-28.947-11.2V360.281
		L264.566,360.281z M121.689,400.214c0-32.808,16.208-63.427,43.355-81.904c9.071-6.174,18.97-10.724,29.451-13.588
		c16.015,10.013,34.101,15.914,52.93,17.288v19.888L213,328.58c-2.637-1.022-5.606-0.675-7.938,0.923
		c-2.331,1.598-3.726,4.243-3.726,7.071v50.255c0,2.827,1.394,5.472,3.726,7.071c1.448,0.992,3.141,1.501,4.847,1.501
		c1.042,0,2.091-0.191,3.091-0.577l34.424-13.32v113.353h-65.94v-89.384c0-4.734-3.837-8.572-8.572-8.572
		c-4.735,0-8.572,3.838-8.572,8.572v89.384h-42.65v-94.643H121.689z M347.65,494.857v-89.384c0-4.734-3.837-8.572-8.572-8.572
		c-4.735,0-8.572,3.838-8.572,8.572v89.384h-65.941V381.504l34.425,13.32c1,0.387,2.048,0.577,3.091,0.577
		c1.706,0,3.4-0.51,4.847-1.501c2.331-1.598,3.726-4.243,3.726-7.071v-50.255c0-2.827-1.394-5.472-3.726-7.071
		c-2.333-1.598-5.303-1.945-7.938-0.923l-34.425,13.319v-19.888c18.829-1.374,36.915-7.276,52.928-17.288
		c10.479,2.864,20.38,7.413,29.452,13.588c27.155,18.481,43.365,49.1,43.365,81.904v94.643L347.65,494.857L347.65,494.857z"/>
	<path style="fill:#333333;" d="M454.794,494.857H441.42c-4.735,0-8.572,3.838-8.572,8.572c0,4.734,3.837,8.572,8.572,8.572h13.374
		c4.735,0,8.572-3.838,8.572-8.572C463.365,498.695,459.528,494.857,454.794,494.857z"/>
	<path style="fill:#333333;" d="M70.581,494.857H57.206c-4.735,0-8.572,3.838-8.572,8.572c0,4.734,3.837,8.572,8.572,8.572h13.375
		c4.735,0,8.572-3.838,8.572-8.572C79.153,498.695,75.316,494.857,70.581,494.857z"/>
	<circle style="fill:#333333;" cx="300.163" cy="202.025" r="8.572"/>
	<circle style="fill:#333333;" cx="211.819" cy="202.025" r="8.572"/>
</g>
<g>
</g>
<g>
</g>
<g>
</g>
<g>
</g>
<g>
</g>
<g>
</g>
<g>
</g>
<g>
</g>
<g>
</g>
<g>
</g>
<g>
</g>
<g>
</g>
<g>
</g>
<g>
</g>
<g>
</g>
</svg>
