<?xml version="1.0" encoding="iso-8859-1"?>
<!-- Generator: Adobe Illustrator 19.0.0, SVG Export Plug-In . SVG Version: 6.00 Build 0)  -->
<svg version="1.1" id="Capa_1" xmlns="http://www.w3.org/2000/svg" xmlns:xlink="http://www.w3.org/1999/xlink" x="0px" y="0px"
	 viewBox="0 0 511.735 511.735" style="enable-background:new 0 0 511.735 511.735;" xml:space="preserve">
<path style="fill:#CCD1D9;" d="M155.919,341.143c0,0,11.994,110.264,83.956,157.599h15.993c13.507-8.878,24.861-19.99,34.465-32.14
	c41.572-52.699,49.49-125.459,49.49-125.459L155.919,341.143L155.919,341.143z"/>
<g>
	<path style="fill:#E6E9ED;" d="M163.915,331.985c0,3.037-2.96,6.559-7.996,10.314l10.272,46.749l81.68-33.076
		c-24.788,0-56.771-16.554-83.956-43.415V331.985z"/>
	<path style="fill:#E6E9ED;" d="M331.827,331.985v-19.428c-27.188,26.861-59.172,43.415-83.956,43.415l81.675,33.076l10.276-46.749
		C334.787,338.544,331.827,335.022,331.827,331.985z"/>
</g>
<polygon style="fill:#ED5565;" points="267.86,395.952 227.882,395.952 214.803,369.364 247.871,355.972 281.346,369.364 "/>
<g style="opacity:0.3;">
	<polygon style="fill:#FFFFFF;" points="218.082,376.032 227.882,395.952 235.877,395.952 224.75,373.331 	"/>
</g>
<g style="opacity:0.2;">
	<polygon points="277.66,376.032 267.86,395.952 259.865,395.952 270.992,373.331 	"/>
</g>
<g style="opacity:0.2;">
	<polygon points="247.871,355.972 214.803,369.364 218.082,376.032 247.871,363.968 	"/>
</g>
<g style="opacity:0.2;">
	<polygon points="277.91,376.134 281.346,369.364 247.871,355.972 247.871,363.968 	"/>
</g>
<path style="fill:#656D78;" d="M239.875,499.897H75.961v-120.82c27.587-10.393,64.045-24.861,79.958-36.777
	C155.919,342.3,167.913,452.562,239.875,499.897z"/>
<g style="opacity:0.2;">
	<path d="M155.919,342.214c-3.826,2.865-8.862,5.88-14.656,8.948c4.61,27.236,23.089,109.404,82.621,148.563H75.961v0.086h163.915
		C167.913,452.476,155.919,342.214,155.919,342.214z"/>
</g>
<g style="opacity:0.2;">
	<polygon style="fill:#FFFFFF;" points="75.961,379.077 75.961,499.897 91.952,499.897 91.952,372.948 	"/>
</g>
<path style="fill:#E6E9ED;" d="M75.961,379.077v120.82H3.998c0,0,0-23.987,0-55.971s15.991-43.978,47.975-55.971
	C58.13,385.637,66.524,382.598,75.961,379.077z"/>
<path style="fill:#FFFFFF;" d="M67.965,387.956c2.334-0.883,5.079-1.897,7.996-2.968v-5.911c-9.437,3.521-17.831,6.56-23.988,8.879
	C19.99,399.949,3.998,411.943,3.998,443.927s0,55.971,0,55.971h15.991c0,0,0-23.987,0-55.971S35.982,399.949,67.965,387.956z"/>
<path style="fill:#656D78;" d="M255.868,499.897h163.914v-120.82c-27.587-10.393-64.045-24.861-79.958-36.777
	C339.823,342.3,327.83,452.562,255.868,499.897z"/>
<g style="opacity:0.2;">
	<path d="M339.823,342.214c3.826,2.865,8.862,5.88,14.656,8.948c-4.614,27.236-23.089,109.404-82.621,148.563h147.923v0.086H255.868
		C327.83,452.476,339.823,342.214,339.823,342.214z"/>
</g>
<g style="opacity:0.2;">
	<polygon style="fill:#FFFFFF;" points="419.781,379.077 419.781,499.897 403.79,499.897 403.79,372.948 	"/>
</g>
<path style="fill:#ED5565;" d="M280.752,478.744l-20.887-82.792h-23.988l-20.926,82.862c7.387,7.824,15.648,14.984,24.924,21.083
	h15.993C265.159,493.791,273.373,486.576,280.752,478.744z"/>
<g style="opacity:0.3;">
	<polygon style="fill:#FFFFFF;" points="233.859,403.947 214.951,478.814 221.537,485.413 241.855,403.947 	"/>
</g>
<g style="opacity:0.2;">
	<polygon points="261.844,403.947 280.752,478.814 274.17,485.413 253.849,403.947 	"/>
</g>
<g style="opacity:0.2;">
	<polygon points="261.883,403.947 259.865,395.952 235.877,395.952 233.859,403.947 	"/>
</g>
<path style="fill:#E6E9ED;" d="M433.11,461.917h58.634c0-5.606,0-11.627,0-17.99c0-31.983-15.991-43.978-47.975-55.971
	c-6.153-2.319-14.555-5.357-23.988-8.879v120.82h13.329V461.917z"/>
<g style="opacity:0.2;">
	<path d="M475.753,443.927c0,6.363,0,12.384,0,17.99h15.991c0-5.606,0-11.627,0-17.99c0-31.983-15.991-43.978-47.975-55.971
		c-6.153-2.319-14.555-5.357-23.988-8.879v5.911c2.921,1.07,5.662,2.085,7.996,2.968
		C459.761,399.949,475.753,411.943,475.753,443.927z"/>
</g>
<rect x="419.778" y="268.018" style="fill:#E6E9ED;" width="87.95" height="127.93"/>
<g>
	<path style="fill:#FFCE54;" d="M374.515,83.801c20.475,45.578,13.275,95.95,13.275,95.95s-3.116-45.742-31.742-63.967
		L374.515,83.801z"/>
	<path style="fill:#FFCE54;" d="M374.515,83.801l-18.467,31.983C284,69.964,224.593,193.509,113.136,160.558
		c-4.482-1.359-9.042-2.952-13.673-4.795c0,0,8.472-143.925,148.399-143.925C321.98,11.839,357.65,46.141,374.515,83.801z"/>
</g>
<g style="opacity:0.2;">
	<path d="M374.515,83.801c-16.865-37.66-52.535-71.962-126.652-71.962c-2.608,0-5.075,0.148-7.598,0.25
		c68.378,2.522,102.048,35.521,118.258,71.712c7.145,15.898,10.869,32.342,12.759,47.069c14.539,20.918,16.508,48.881,16.508,48.881
		S394.99,129.379,374.515,83.801z"/>
</g>
<g style="opacity:0.5;">
	<path style="fill:#FFFFFF;" d="M115.081,161.12c0,0,8.628-143.871,141.176-149.032c-2.772-0.109-5.505-0.25-8.394-0.25
		c-139.927,0-148.399,143.925-148.399,143.925C104.095,157.606,115.081,161.12,115.081,161.12z"/>
</g>
<path style="fill:#EAC6BB;" d="M387.791,179.751l-0.883,15.992c-3.107,88.267-88.915,159.917-139.044,159.917
	c-53.254,0-142.418-76.148-139.927-175.909v-20.864c117.189,36.606,176.064-88.922,248.112-43.103
	C384.675,134.01,387.791,179.751,387.791,179.751z"/>
<g style="opacity:0.2;">
	<path d="M356.049,115.785c-14.172-9.011-27.829-11.33-41.525-9.62c8.402,1.132,16.875,4.107,25.534,9.62
		c28.626,18.225,31.741,63.967,31.741,63.967l-0.883,15.992c-8.659,80.927-81.113,152.327-131.322,159.229
		c2.827,0.422,5.599,0.688,8.27,0.688c50.129,0,129.932-74.758,139.044-159.917l0.883-15.992
		C387.791,179.751,384.675,134.01,356.049,115.785z"/>
</g>
<g style="opacity:0.5;">
	<path style="fill:#FFFFFF;" d="M123.928,179.751v-16.874c-5.224-1.039-10.526-2.28-15.992-3.99v20.864
		c0,91.554,86.673,175.909,139.927,175.909c2.491,0,5.099-0.328,7.723-0.688C202.106,347.126,123.928,266.714,123.928,179.751z"/>
</g>
<g>
	<rect x="347.818" y="435.928" style="fill:#E6E9ED;" width="87.95" height="63.967"/>
	<polygon style="fill:#E6E9ED;" points="507.736,475.91 435.773,499.897 435.773,435.931 507.736,411.943 	"/>
</g>
<g style="opacity:0.2;">
	<polygon points="507.736,475.91 435.773,499.897 435.773,435.931 507.736,411.943 	"/>
</g>
<g>
	<path style="fill:#ED5565;" d="M465.414,318.336c-3.123-3.124-8.184-3.124-11.307,0c-3.123,3.123-3.123,8.183,0,11.307
		l11.307,11.307l11.307-11.307c3.123-3.124,3.123-8.184,0-11.307C473.597,315.212,468.537,315.212,465.414,318.336z"/>
	<polygon style="fill:#ED5565;" points="507.736,411.943 419.781,411.943 347.819,435.931 435.773,435.931 	"/>
</g>
<g>
	<rect x="347.818" y="435.928" style="fill:#FFFFFF;" width="7.995" height="63.967"/>
	<rect x="419.778" y="268.018" style="fill:#FFFFFF;" width="7.996" height="127.93"/>
</g>
<g style="opacity:0.2;">
	<rect x="499.738" y="268.018" width="7.996" height="127.93"/>
</g>
<g>
	<path style="fill:#3A3847;" d="M267.86,399.949h-39.979c-1.515,0-2.897-0.858-3.576-2.21l-7.996-15.991
		c-0.988-1.976-0.188-4.373,1.788-5.364c1.979-0.992,4.373-0.18,5.364,1.788l6.891,13.782h35.041l6.887-13.782
		c0.991-1.968,3.389-2.78,5.364-1.788c1.976,0.991,2.772,3.389,1.788,5.364l-7.995,15.991
		C270.758,399.091,269.375,399.949,267.86,399.949z"/>
	<path style="fill:#3A3847;" d="M219.89,463.916c-0.32,0-0.648-0.039-0.972-0.117c-2.144-0.538-3.448-2.709-2.909-4.849
		l15.992-63.967c0.531-2.147,2.69-3.428,4.845-2.912c2.144,0.538,3.447,2.709,2.908,4.849l-15.991,63.967
		C223.31,462.706,221.682,463.916,219.89,463.916z"/>
	<path style="fill:#3A3847;" d="M275.856,463.916c-1.796,0-3.42-1.21-3.873-3.029l-15.995-63.967
		c-0.539-2.14,0.765-4.311,2.908-4.849c2.124-0.508,4.311,0.765,4.846,2.912l15.987,63.967c0.547,2.14-0.765,4.311-2.905,4.849
		C276.497,463.877,276.169,463.916,275.856,463.916z"/>
	<path style="fill:#3A3847;" d="M307.84,383.958c-0.5,0-1-0.094-1.483-0.289l-59.968-23.987c-2.05-0.82-3.049-3.147-2.229-5.192
		c0.816-2.055,3.154-3.046,5.196-2.226l59.968,23.987c2.046,0.82,3.046,3.146,2.233,5.192
		C310.931,383.005,309.425,383.958,307.84,383.958z"/>
	<path style="fill:#3A3847;" d="M187.903,383.958c-1.585,0-3.088-0.953-3.713-2.515c-0.82-2.046,0.18-4.372,2.229-5.192
		l59.969-23.987c2.026-0.813,4.38,0.179,5.196,2.226c0.82,2.045-0.18,4.372-2.229,5.192l-59.969,23.987
		C188.902,383.864,188.399,383.958,187.903,383.958z"/>
	<path style="fill:#3A3847;" d="M247.871,487.903c-2.21,0-3.998-1.787-3.998-3.998v-63.967c0-2.209,1.788-3.997,3.998-3.997
		s3.998,1.788,3.998,3.997v63.967C251.869,486.116,250.081,487.903,247.871,487.903z"/>
	<path style="fill:#3A3847;" d="M331.827,503.895H3.998c-2.21,0-3.998-1.788-3.998-3.998v-55.971
		c0-34.311,17.776-47.46,50.571-59.719l8.601-3.187c66.848-24.667,100.745-41.166,100.745-49.036c0-2.211,1.788-3.998,3.998-3.998
		c2.209,0,3.998,1.787,3.998,3.998c0,14.578-38.855,31.771-105.968,56.54l-8.574,3.179c-30.742,11.486-45.375,22.238-45.375,52.223
		v51.973h323.831c2.21,0,3.998,1.788,3.998,3.998S334.037,503.895,331.827,503.895z"/>
	<path style="fill:#3A3847;" d="M403.813,376.954c-0.484,0-0.976-0.086-1.452-0.273c-65.677-25.612-74.531-36.966-74.531-44.695
		c0-2.211,1.787-3.998,3.997-3.998s3.998,1.787,3.998,3.998c0,2.381,5.013,12.118,69.44,37.246c2.054,0.804,3.076,3.123,2.272,5.177
		C406.921,375.985,405.414,376.954,403.813,376.954z"/>
	<path style="fill:#3A3847;" d="M247.871,359.97c-55.522,0-143.925-78.678-143.925-171.91c0-2.21,1.789-3.998,3.998-3.998
		s3.998,1.788,3.998,3.998c0,88.899,83.492,163.915,135.93,163.915c52.441,0,135.929-75.016,135.929-163.915
		c0-2.21,1.788-3.998,3.998-3.998c2.209,0,3.997,1.788,3.997,3.998C391.796,281.292,303.389,359.97,247.871,359.97z"/>
	<path style="fill:#3A3847;" d="M255.871,503.895c-1.3,0-2.577-0.633-3.346-1.804c-1.21-1.843-0.699-4.318,1.144-5.536
		c69.522-45.703,82.062-153.607,82.179-154.686c0.242-2.202,2.155-3.818,4.412-3.545c2.187,0.242,3.779,2.21,3.537,4.404
		c-0.5,4.583-13.032,112.715-85.733,160.51C257.386,503.684,256.624,503.895,255.871,503.895z"/>
	<path style="fill:#3A3847;" d="M239.871,503.895c-0.753,0-1.515-0.211-2.194-0.656c-72.701-47.795-85.233-155.927-85.733-160.51
		c-0.238-2.194,1.347-4.162,3.541-4.404c2.218-0.266,4.17,1.343,4.408,3.545c0.117,1.078,12.657,108.982,82.18,154.686
		c1.843,1.218,2.354,3.693,1.144,5.536C242.449,503.263,241.172,503.895,239.871,503.895z"/>
	<path style="fill:#3A3847;" d="M75.961,503.895c-2.209,0-3.998-1.788-3.998-3.998V379.054c0-2.209,1.789-3.998,3.998-3.998
		s3.998,1.789,3.998,3.998v120.844C79.958,502.107,78.17,503.895,75.961,503.895z"/>
	<path style="fill:#3A3847;" d="M163.915,335.982c-2.21,0-3.998-1.788-3.998-3.997v-19.459c0-2.21,1.788-3.998,3.998-3.998
		c2.209,0,3.998,1.788,3.998,3.998v19.459C167.913,334.194,166.125,335.982,163.915,335.982z"/>
	<path style="fill:#3A3847;" d="M331.827,335.982c-2.21,0-3.997-1.788-3.997-3.997v-19.459c0-2.21,1.787-3.998,3.997-3.998
		s3.998,1.788,3.998,3.998v19.459C335.825,334.194,334.037,335.982,331.827,335.982z"/>
	<path style="fill:#3A3847;" d="M387.799,183.749c-0.047,0-0.094,0-0.141-0.008c-2.046-0.07-3.701-1.679-3.85-3.717
		c-0.023-0.437-3.334-43.984-29.883-60.866c-10.269-6.528-20.646-9.698-31.719-9.698c-21.77,0-44.234,12.524-68.015,25.783
		c-29.387,16.39-62.694,34.958-102.892,34.958c-17.768,0-35.212-3.506-53.331-10.721c-1.601-0.64-2.612-2.233-2.511-3.951
		C95.543,154.053,105.819,7.841,247.87,7.841c48.583,0,85.845,14.547,110.723,43.228c43.821,50.528,33.615,126.06,33.162,129.245
		C391.469,182.289,389.781,183.749,387.799,183.749z M103.677,153.117c16.175,6.114,31.78,9.089,47.623,9.089
		c38.121,0,70.464-18.03,99-33.943c24.713-13.782,48.06-26.799,71.907-26.799c12.643,0,24.418,3.584,35.997,10.947
		c13.556,8.613,21.685,22.73,26.541,35.802c-1.21-26.143-7.723-63.717-32.226-91.944c-23.292-26.83-58.5-40.432-104.648-40.432
		C122.589,15.837,105.68,132.557,103.677,153.117z"/>
	<path style="fill:#3A3847;" d="M356.064,119.783c-0.687,0-1.374-0.172-1.998-0.539c-1.914-1.102-2.569-3.553-1.461-5.458
		l18.498-31.983c1.094-1.913,3.529-2.577,5.467-1.46c1.904,1.101,2.561,3.553,1.452,5.458l-18.499,31.983
		C358.782,119.064,357.439,119.783,356.064,119.783z"/>
	<path style="fill:#3A3847;" d="M107.944,192.057c-2.209,0-3.998-1.788-3.998-3.998v-15.991c0-2.209,1.789-3.998,3.998-3.998
		s3.998,1.788,3.998,3.998v15.992C111.942,190.269,110.154,192.057,107.944,192.057z"/>
	<path style="fill:#3A3847;" d="M435.773,503.895h-87.954c-2.21,0-3.998-1.788-3.998-3.998s1.788-3.998,3.998-3.998h87.954
		c2.21,0,3.998,1.788,3.998,3.998S437.983,503.895,435.773,503.895z"/>
	<path style="fill:#3A3847;" d="M435.773,487.903h-87.954c-2.21,0-3.998-1.787-3.998-3.998c0-2.209,1.788-3.997,3.998-3.997h87.954
		c2.21,0,3.998,1.788,3.998,3.997C439.771,486.116,437.983,487.903,435.773,487.903z"/>
	<path style="fill:#3A3847;" d="M435.773,471.912h-87.954c-2.21,0-3.998-1.788-3.998-3.998s1.788-3.998,3.998-3.998h87.954
		c2.21,0,3.998,1.788,3.998,3.998S437.983,471.912,435.773,471.912z"/>
	<path style="fill:#3A3847;" d="M435.773,455.921h-87.954c-2.21,0-3.998-1.789-3.998-3.998c0-2.21,1.788-3.998,3.998-3.998h87.954
		c2.21,0,3.998,1.788,3.998,3.998C439.771,454.132,437.983,455.921,435.773,455.921z"/>
	<path style="fill:#3A3847;" d="M435.773,439.929h-87.954c-2.21,0-3.998-1.788-3.998-3.998s1.788-3.998,3.998-3.998h87.954
		c2.21,0,3.998,1.788,3.998,3.998S437.983,439.929,435.773,439.929z"/>
	<path style="fill:#3A3847;" d="M435.773,439.929c-1.671,0-3.232-1.063-3.795-2.732c-0.695-2.094,0.438-4.357,2.529-5.061
		l71.963-23.987c2.116-0.711,4.357,0.445,5.061,2.53c0.694,2.092-0.438,4.356-2.53,5.06l-71.963,23.987
		C436.617,439.866,436.195,439.929,435.773,439.929z"/>
	<path style="fill:#3A3847;" d="M347.819,439.929c-1.671,0-3.233-1.063-3.795-2.732c-0.695-2.094,0.437-4.357,2.53-5.061
		l71.962-23.987c2.124-0.711,4.357,0.445,5.06,2.53c0.695,2.092-0.437,4.356-2.529,5.06l-71.963,23.987
		C348.662,439.866,348.24,439.929,347.819,439.929z"/>
	<path style="fill:#3A3847;" d="M435.773,455.921c-1.671,0-3.232-1.063-3.795-2.733c-0.695-2.093,0.438-4.357,2.529-5.06
		l71.963-23.988c2.116-0.702,4.357,0.445,5.061,2.53c0.694,2.093-0.438,4.357-2.53,5.06l-71.963,23.988
		C436.617,455.858,436.195,455.921,435.773,455.921z"/>
	<path style="fill:#3A3847;" d="M435.773,471.912c-1.671,0-3.232-1.062-3.795-2.733c-0.695-2.092,0.438-4.356,2.529-5.06
		l71.963-23.987c2.116-0.695,4.357,0.445,5.061,2.529c0.694,2.094-0.438,4.357-2.53,5.061l-71.963,23.987
		C436.617,471.849,436.195,471.912,435.773,471.912z"/>
	<path style="fill:#3A3847;" d="M435.773,487.903c-1.671,0-3.232-1.062-3.795-2.732c-0.695-2.093,0.438-4.357,2.529-5.061
		l71.963-23.987c2.116-0.71,4.357,0.438,5.061,2.53c0.694,2.093-0.438,4.357-2.53,5.06L437.038,487.7
		C436.617,487.841,436.195,487.903,435.773,487.903z"/>
	<path style="fill:#3A3847;" d="M435.773,503.895c-1.671,0-3.232-1.063-3.795-2.732c-0.695-2.094,0.438-4.357,2.529-5.061
		l71.963-23.987c2.116-0.703,4.357,0.444,5.061,2.53c0.694,2.092-0.438,4.356-2.53,5.06l-71.963,23.987
		C436.617,503.833,436.195,503.895,435.773,503.895z"/>
	<path style="fill:#3A3847;" d="M507.736,415.941h-87.955c-2.209,0-3.998-1.788-3.998-3.998s1.789-3.998,3.998-3.998h87.955
		c2.209,0,3.998,1.788,3.998,3.998S509.945,415.941,507.736,415.941z"/>
	<path style="fill:#3A3847;" d="M507.736,399.949h-87.955c-2.209,0-3.998-1.788-3.998-3.997c0-2.211,1.789-3.998,3.998-3.998h87.955
		c2.209,0,3.998,1.787,3.998,3.998C511.734,398.161,509.945,399.949,507.736,399.949z"/>
	<path style="fill:#3A3847;" d="M507.736,399.949c-2.21,0-3.998-1.788-3.998-3.997V268.018c0-2.21,1.788-3.998,3.998-3.998
		c2.209,0,3.998,1.788,3.998,3.998v127.934C511.734,398.161,509.945,399.949,507.736,399.949z"/>
	<path style="fill:#3A3847;" d="M507.736,272.015h-87.955c-2.209,0-3.998-1.788-3.998-3.997c0-2.21,1.789-3.998,3.998-3.998h87.955
		c2.209,0,3.998,1.788,3.998,3.998C511.734,270.227,509.945,272.015,507.736,272.015z"/>
	<path style="fill:#3A3847;" d="M419.781,399.949c-2.209,0-3.998-1.788-3.998-3.997V268.018c0-2.21,1.789-3.998,3.998-3.998
		c2.21,0,3.998,1.788,3.998,3.998v127.934C423.779,398.161,421.991,399.949,419.781,399.949z"/>
	<path style="fill:#3A3847;" d="M465.414,344.946c-1.062,0-2.077-0.421-2.826-1.171l-11.307-11.307
		c-2.265-2.265-3.514-5.278-3.514-8.479s1.249-6.216,3.514-8.48c2.264-2.264,5.278-3.514,8.479-3.514l0,0
		c1.999,0,3.936,0.492,5.653,1.413c4.467-2.39,10.447-1.585,14.134,2.101c2.265,2.265,3.514,5.279,3.514,8.48
		s-1.249,6.215-3.514,8.479l-11.307,11.307C467.491,344.525,466.476,344.946,465.414,344.946z M459.761,319.991
		c-1.062,0-2.069,0.414-2.826,1.171c-0.75,0.758-1.172,1.757-1.172,2.827c0,1.069,0.422,2.068,1.172,2.826l8.479,8.48l8.48-8.48
		c0.749-0.758,1.171-1.757,1.171-2.826c0-1.07-0.422-2.069-1.171-2.827c-1.516-1.515-4.139-1.515-5.653,0
		c-1.562,1.562-4.092,1.562-5.653,0C461.83,320.405,460.822,319.991,459.761,319.991z"/>
	<path style="fill:#3A3847;" d="M435.773,296.003c-2.21,0-3.998-1.787-3.998-3.997v-7.996c0-2.21,1.788-3.998,3.998-3.998
		s3.998,1.788,3.998,3.998v7.996C439.771,294.216,437.983,296.003,435.773,296.003z"/>
	<path style="fill:#3A3847;" d="M491.744,383.958c-2.21,0-3.998-1.788-3.998-3.998v-7.996c0-2.21,1.788-3.998,3.998-3.998
		s3.998,1.788,3.998,3.998v7.996C495.742,382.17,493.954,383.958,491.744,383.958z"/>
</g>
<g>
</g>
<g>
</g>
<g>
</g>
<g>
</g>
<g>
</g>
<g>
</g>
<g>
</g>
<g>
</g>
<g>
</g>
<g>
</g>
<g>
</g>
<g>
</g>
<g>
</g>
<g>
</g>
<g>
</g>
</svg>
