<svg enable-background="new 0 0 24 24" height="512" viewBox="0 0 24 24" width="512" xmlns="http://www.w3.org/2000/svg"><path d="m18.5 4c-.829 0-1.5.672-1.5 1.5v-2c0-.828-.671-1.5-1.5-1.5s-1.5.672-1.5 1.5v-1c0-.828-.671-1.5-1.5-1.5s-1.5.672-1.5 1.5v1c0-.828-.671-1.5-1.5-1.5s-1.5.672-1.5 1.5v11.5l-3.717-2.279-.003-.001c-.22-.14-.49-.22-.78-.22-.83 0-1.5.67-1.5 1.5 0 .29.08.57.23.8l-.001-.004 4.596 7.329c.731 1.167 2.011 1.875 3.388 1.875h4.787c2.761 0 5-2.238 5-5v-1-6.5-6c0-.828-.671-1.5-1.5-1.5z" fill="#ffcc80"/><g fill="#ffa726"><path d="m17.5 4.39v9.61c-.28 0-.5-.22-.5-.5v-8c0-.44.19-.84.5-1.11z"/><path d="m14.5 2.39v11.11c-.28 0-.5-.22-.5-.5v-9.5c0-.44.19-.84.5-1.11z"/><path d="m11.5 1.39v11.61c-.28 0-.5-.22-.5-.5v-10c0-.44.19-.84.5-1.11z"/></g><path d="m11 2.495v.005c0-.002 0-.003 0-.005zm0-.005v.003c0-.001 0-.002 0-.003zm0-.005v.003c0-.001 0-.002 0-.003zm0-.005v.003c0-.001 0-.002 0-.003zm0-.005v.003c0-.001 0-.002 0-.003zm0-.005v.003c0-.001 0-.002 0-.003zm0-.005v.003c0-.001 0-.002 0-.003zm.001-.005v.003c-.001-.001 0-.002 0-.003zm0-.005v.003c0-.001 0-.002 0-.003zm0-.005v.003c0-.001 0-.002 0-.003zm0-.005v.003c0-.001 0-.002 0-.003zm0-.005v.003c0-.001 0-.002 0-.003zm0-.005v.003c0-.001 0-.002 0-.003zm.001-.005v.003c0-.001 0-.002 0-.003zm0-.006v.004c0-.002 0-.003 0-.004zm0-.006v.005c0-.002 0-.003 0-.005zm.001-.005v.003c-.001-.001-.001-.002 0-.003zm0-.005v.003c0-.001 0-.002 0-.003zm0-.005v.003c0-.001 0-.002 0-.003zm0-.005v.003c0-.001 0-.002 0-.003zm.001-.005v.003c0-.001 0-.002 0-.003zm0-.005v.003c0-.001 0-.002 0-.003zm0-.005v.003c0-.001 0-.002 0-.003zm.001-.005v.003c0-.001 0-.002 0-.003zm0-.005v.003c0-.001 0-.002 0-.003zm.001-.005v.003c0-.001 0-.002 0-.003zm0-.005v.003c0-.001 0-.002 0-.003zm.001-.005v.003c-.001-.001 0-.002 0-.003zm0-.006v.004c0-.001 0-.002 0-.004zm.003-.03c-.001.01-.002.02-.003.03.001-.01.002-.02.003-.03zm.001-.005c0 .002 0 .003-.001.005.001-.002.001-.003.001-.005zm.989-1.232c-.527.186-.919.659-.989 1.231.045-.366.223-.694.489-.926v11.61c-.28 0-.5-.22-.5-.5v-10 1c0-.828-.671-1.5-1.5-1.5s-1.5.672-1.5 1.5v11.5l-3.717-2.279-.003-.001c-.22-.14-.49-.22-.78-.22-.83 0-1.5.67-1.5 1.5 0 .29.08.57.23.8l-.001-.004 4.596 7.329c.731 1.167 2.011 1.875 3.388 1.875h1.787z" fill="#deb26f"/><path d="m11.5 1.39c-.266.232-.444.56-.489.927 0 .002 0 .003-.001.005-.001.01-.002.02-.003.03v.004.001.003.002.003.002.003.002.003.002.003.002.003.002.003.002.003.002.003.002.003.002.003.002.003.002.005.001.004.002.003.002.003.002.003.002.003.002.003.002.003.002.003.002.003.002.003.002.003.002.003.002.003.002.003.002.005 10c0 .28.22.5.5.5v-11.609z" fill="#de9121"/></svg>