<svg id="Layer_1" enable-background="new 0 0 512.245 512.245" height="512" viewBox="0 0 512.245 512.245" width="512" xmlns="http://www.w3.org/2000/svg"><g><path d="m331.415 399.442c-2.581 1.132-146.105 64.161-146.65 64.4-20.439 8.967-43.94-.575-52.71-20.54l-128.67-292.99c-8.876-20.235.301-43.832 20.54-52.71 112.947-49.598 92.365-40.559 133.1-58.45 5.279-2.32 11.22 1.546 11.22 7.32v313.65c0 13.23 10.77 24 24 24h135.95c8.618 0 11.122 11.849 3.22 15.32z" fill="#edebfd"/><path d="m331.415 399.442c-2.317 1.017 10.958.68-163.17.68-22.09 0-40-17.91-40-40v-308.33l28.78-12.64c5.279-2.32 11.22 1.546 11.22 7.32v313.65c0 13.23 10.77 24 24 24h135.95c8.618 0 11.122 11.849 3.22 15.32z" fill="#d2d2fc"/><path d="m384.245 400.122h-192c-22.091 0-40-17.909-40-40v-320c0-22.091 17.909-40 40-40h192c22.091 0 40 17.909 40 40v320c0 22.092-17.909 40-40 40z" fill="#edebfd"/><path d="m350.865 183.492c0 10.68-4.16 20.73-11.71 28.29l-45.25 45.25c-3.141 3.121-8.18 3.12-11.32 0l-45.25-45.25c-24.93-24.963-7.515-68.28 28.28-68.28 8.2 0 16.02 2.44 22.63 7 25.892-17.862 62.62.314 62.62 32.99z" fill="#e48c9b"/><path d="m255.565 55.812c0 6.41-2.5 12.43-7.03 16.97l-22.63 22.63c-3.134 3.115-8.174 3.126-11.32 0l-22.63-22.63c-14.969-15.002-4.503-40.98 16.97-40.98 4.02 0 7.88.98 11.32 2.82 15.725-8.411 35.32 2.853 35.32 21.19z" fill="#e48c9b"/><path d="m502.355 303.362-6.12 153.08c-.17 4.29-3.7 7.68-7.99 7.68h-152c-2.76 0-5.32-1.42-6.78-3.76l-33.12-52.99c-1.24-1.97-1.55-4.38-.86-6.6.31-.973-5.491-.65 76.34-.65l-21.74-34.08c-16.735-24.382-14.465-57.967 7.37-79.82 10.323-10.323 27.332-9.102 36.12 2.4 17.38 25.278 5.842 8.488 30.67 44.6v-152.66c29.876 26.888 19.463 17.518 42.45 38.2 23.96 21.56 36.95 52.4 35.66 84.6z" fill="#ebb19c"/><path d="m466.695 218.762-42.45-38.2v27.896l11.45 10.304c23.96 21.56 36.95 52.4 35.66 84.6l-6.12 153.08c-.17 4.29-3.7 7.68-7.99 7.68h31c4.29 0 7.82-3.39 7.99-7.68l6.12-153.08c1.29-32.2-11.7-63.04-35.66-84.6z" fill="#e58d72"/><path d="m104.625 146.042-9.11 38.95c-1.226 5.178-7.052 7.774-11.72 5.15l-34.84-19.65c-3.1-1.75-4.67-5.33-3.86-8.79l9.11-38.95c1.202-5.164 7.045-7.77 11.71-5.15l34.85 19.65c3.09 1.75 4.67 5.33 3.86 8.79z" fill="#e48c9b"/><path d="m512.245 456.122v48c0 4.42-3.58 8-8 8h-192c-4.42 0-8-3.58-8-8v-48c0-4.42 3.58-8 8-8h192c4.42 0 8 3.58 8 8z" fill="#e48c9b"/><path d="m504.245 448.122h-32c4.42 0 8 3.58 8 8v48c0 4.42-3.58 8-8 8h32c4.42 0 8-3.58 8-8v-48c0-4.42-3.58-8-8-8z" fill="#cc5b6f"/><path d="m442.158 360.122c-1.836 0-3.648-1.126-4.852-3.273l-13.062-24.038v-27.968c21.405 39.405 16.821 30.968 22.749 41.874 3.076 5.511.157 13.405-4.835 13.405z" fill="#e58d72"/></g></svg>