<?xml version="1.0" encoding="iso-8859-1"?>
<!-- Generator: Adobe Illustrator 19.0.0, SVG Export Plug-In . SVG Version: 6.00 Build 0)  -->
<svg version="1.1" id="Layer_1" xmlns="http://www.w3.org/2000/svg" xmlns:xlink="http://www.w3.org/1999/xlink" x="0px" y="0px"
	 viewBox="0 0 512 512" style="enable-background:new 0 0 512 512;" xml:space="preserve">
<path style="fill:#E54728;" d="M467.03,38.207c-12.725-12.727-29.644-19.735-47.64-19.735c-15.351,0-29.921,5.102-41.771,14.501
	c-11.847-9.397-26.412-14.495-41.764-14.495c-17.995,0-34.912,7.007-47.63,19.725c-12.728,12.714-19.739,29.634-19.739,47.643
	s7.009,34.929,19.68,47.584l82.807,82.819c1.835,1.836,4.241,2.753,6.646,2.753c2.405,0,4.811-0.917,6.646-2.753l82.764-82.764
	C493.292,107.226,493.293,64.484,467.03,38.207z"/>
<path style="fill:#333333;" d="M160.715,180.673c16.305,0,31.633-6.353,43.159-17.886c11.53-11.53,17.88-26.855,17.88-43.153
	c0-16.32-6.351-31.652-17.879-43.164L130.158,2.753c-3.671-3.671-9.622-3.671-13.292,0L43.15,76.469
	c-11.529,11.527-17.878,26.856-17.878,43.159s6.349,31.632,17.878,43.159c11.53,11.53,26.854,17.88,43.153,17.88
	c10.104,0,19.824-2.44,28.499-7.029v45.04H83.007c-5.191,0-9.399,4.208-9.399,9.399s4.208,9.399,9.399,9.399h82.388
	c5.191,0,9.399-4.208,9.399-9.399s-4.208-9.399-9.399-9.399h-31.795v-44.336C141.924,178.479,151.15,180.673,160.715,180.673z"/>
<path style="fill:#E54728;" d="M207.698,392.765l-76.611-104.27c-1.771-2.41-4.583-3.834-7.575-3.834s-5.804,1.424-7.575,3.834
	l-76.611,104.27c-2.433,3.312-2.433,7.819,0,11.131l76.611,104.27c1.771,2.41,4.583,3.834,7.575,3.834s5.804-1.424,7.575-3.834
	l76.611-104.27C210.13,400.584,210.13,396.077,207.698,392.765z"/>
<path style="fill:#333333;" d="M440.533,367.563c-21.002,0-38.599,14.815-42.916,34.539h-10.597v-23.355
	c19.725-4.317,34.539-21.914,34.539-42.916c0-24.228-19.711-43.939-43.939-43.939c-24.228,0-43.939,19.711-43.939,43.939
	c0,21.002,14.815,38.599,34.539,42.916v23.355h-10.597c-4.317-19.725-21.914-34.539-42.916-34.539
	c-24.228,0-43.939,19.711-43.939,43.939s19.711,43.939,43.939,43.939c21.002,0,38.599-14.815,42.916-34.539h10.597v65.081h-35.003
	c-5.191,0-9.399,4.208-9.399,9.399c0,5.191,4.208,9.399,9.399,9.399h88.817c5.191,0,9.399-4.208,9.399-9.399
	c0-5.191-4.208-9.399-9.399-9.399h-35.016v-65.081h10.597c4.317,19.725,21.914,34.539,42.916,34.539
	c24.228,0,43.939-19.711,43.939-43.939S464.76,367.563,440.533,367.563z"/>
<g>
</g>
<g>
</g>
<g>
</g>
<g>
</g>
<g>
</g>
<g>
</g>
<g>
</g>
<g>
</g>
<g>
</g>
<g>
</g>
<g>
</g>
<g>
</g>
<g>
</g>
<g>
</g>
<g>
</g>
</svg>
