<?xml version="1.0" encoding="iso-8859-1"?>
<!-- Generator: Adobe Illustrator 19.0.0, SVG Export Plug-In . SVG Version: 6.00 Build 0)  -->
<svg version="1.1" id="Layer_1" xmlns="http://www.w3.org/2000/svg" xmlns:xlink="http://www.w3.org/1999/xlink" x="0px" y="0px"
	 viewBox="0 0 512 512" style="enable-background:new 0 0 512 512;" xml:space="preserve">
<path style="fill:#2197D8;" d="M444.604,64.787v417.261c0,11.754-9.521,21.275-21.276,21.275H124.928
	c-11.754,0-21.275-9.521-21.275-21.276V468.5h283.419c11.754,0,21.287-9.521,21.287-21.275V43.5h1.423h13.547
	C435.083,43.5,444.604,53.033,444.604,64.787z"/>
<path style="fill:#F2F2F2;" d="M408.359,43.5v403.725c0,11.754-9.533,21.276-21.287,21.276H103.653h-14.97
	c-11.754,0-21.287-9.521-21.287-21.276V29.964c0-11.754,9.533-21.287,21.287-21.287h298.389c11.754,0,21.287,9.533,21.287,21.287
	V43.5z M372.078,410.32c7.092-7.092,7.092-18.591,0-25.683c-3.552-3.54-8.191-5.322-12.83-5.322c-4.651,0-9.302,1.782-12.842,5.322
	l-0.243,0.243l-0.243-0.243c-7.092-7.092-18.591-7.092-25.683,0c-3.54,3.54-5.322,8.191-5.322,12.842
	c0,4.651,1.782,9.302,5.322,12.842l0.243,0.243l25.683,25.672l25.672-25.672L372.078,410.32z M314.268,246.074
	c20.905-20.905,20.905-54.779,0-75.685c-10.447-10.447-24.145-15.676-37.831-15.676c-13.698,0-27.396,5.229-37.842,15.676
	l-0.717,0.717l-0.717-0.717c-20.894-20.894-54.779-20.894-75.673,0c-10.458,10.447-15.676,24.145-15.676,37.842
	s5.218,27.396,15.676,37.842l0.706,0.706l75.685,75.685l75.685-75.685L314.268,246.074z M155.517,71.936
	c7.092-7.08,7.092-18.58,0-25.672c-3.54-3.54-8.191-5.322-12.842-5.322s-9.302,1.782-12.842,5.322l-0.243,0.243l-0.243-0.243
	c-7.092-7.092-18.591-7.092-25.683,0c-3.54,3.54-5.31,8.191-5.31,12.842s1.77,9.29,5.31,12.83l0.243,0.243l25.683,25.683
	l25.683-25.683L155.517,71.936z"/>
<g>
	<path style="fill:#F95428;" d="M372.078,384.636c7.092,7.092,7.092,18.591,0,25.683l-0.243,0.243l-25.672,25.672l-25.683-25.672
		l-0.243-0.243c-3.54-3.54-5.322-8.191-5.322-12.842c0-4.651,1.782-9.302,5.322-12.842c7.092-7.092,18.591-7.092,25.683,0
		l0.243,0.243l0.243-0.243c3.54-3.54,8.191-5.322,12.842-5.322C363.887,379.315,368.526,381.096,372.078,384.636z"/>
	<path style="fill:#F95428;" d="M314.268,170.389c20.905,20.905,20.905,54.779,0,75.685l-0.706,0.706l-75.685,75.685l-75.685-75.685
		l-0.706-0.706c-10.458-10.447-15.676-24.145-15.676-37.842s5.218-27.396,15.676-37.842c20.894-20.894,54.779-20.894,75.673,0
		l0.717,0.717l0.717-0.717c10.447-10.447,24.145-15.676,37.842-15.676C290.123,154.713,303.821,159.942,314.268,170.389z"/>
	<path style="fill:#F95428;" d="M155.517,46.265c7.092,7.092,7.092,18.591,0,25.672l-0.243,0.243l-25.683,25.683l-25.683-25.683
		l-0.243-0.243c-3.54-3.54-5.31-8.179-5.31-12.83s1.77-9.302,5.31-12.842c7.092-7.092,18.591-7.092,25.683,0l0.243,0.243
		l0.243-0.243c3.54-3.54,8.191-5.322,12.842-5.322C147.326,40.943,151.977,42.725,155.517,46.265z"/>
</g>
<g>
	<path style="fill:#333333;" d="M423.329,34.823h-6.292v-4.859C417.037,13.442,403.595,0,387.073,0H88.683
		C72.161,0,58.719,13.442,58.719,29.964v417.261c0,16.516,13.442,29.952,29.964,29.952h6.294v4.871
		c0,16.515,13.436,29.952,29.952,29.952h298.401c16.515,0,29.952-13.436,29.952-29.952V64.787
		C453.28,48.264,439.844,34.823,423.329,34.823z M76.072,447.225V29.964c0-6.953,5.657-12.61,12.61-12.61h298.389
		c6.954,0,12.61,5.657,12.61,12.61v417.261c0,6.947-5.657,12.599-12.61,12.599H88.683C81.73,459.824,76.072,454.172,76.072,447.225z
		 M435.927,482.048c0,6.946-5.651,12.599-12.599,12.599H124.927c-6.947,0-12.599-5.651-12.599-12.599v-4.871H387.07
		c16.522,0,29.964-13.436,29.964-29.952V52.176h6.292c6.947,0,12.599,5.657,12.599,12.61v417.261H435.927z"/>
	<path style="fill:#333333;" d="M237.877,331.141c-2.301,0-4.508-0.914-6.135-2.542l-76.388-76.388
		c-11.748-11.736-18.22-27.355-18.22-43.981s6.471-32.245,18.221-43.981c11.74-11.74,27.356-18.209,43.968-18.209
		c14.172,0,27.618,4.706,38.554,13.381c10.94-8.678,24.388-13.387,38.56-13.387c16.605,0,32.219,6.469,43.966,18.218
		c24.25,24.249,24.25,63.706,0.001,87.955l-0.709,0.708l-75.681,75.682C242.386,330.227,240.178,331.141,237.877,331.141z
		 M199.323,163.414c-11.48,0-22.961,4.37-31.702,13.11c-8.471,8.462-13.134,19.721-13.134,31.707
		c0,11.986,4.663,23.246,13.131,31.704l0.707,0.706l69.552,69.553l70.258-70.258c17.48-17.481,17.48-45.928-0.003-63.412
		c-8.47-8.47-19.726-13.134-31.695-13.134c-11.977,0-23.236,4.665-31.707,13.134l-0.717,0.717c-3.389,3.389-8.883,3.389-12.27,0
		l-0.717-0.717C222.284,167.784,210.803,163.414,199.323,163.414z"/>
	<path style="fill:#333333;" d="M129.591,106.539c-2.22,0-4.441-0.847-6.135-2.542L97.529,78.071
		c-5.063-5.063-7.852-11.798-7.852-18.965c0-7.175,2.788-13.914,7.852-18.977c8.668-8.668,21.838-10.155,32.052-4.463
		c3.957-2.219,8.436-3.399,13.095-3.399c7.167,0,13.907,2.793,18.977,7.863c5.068,5.068,7.86,11.807,7.86,18.976
		c0,7.17-2.794,13.908-7.866,18.972L135.726,104C134.032,105.691,131.811,106.539,129.591,106.539z M116.506,49.627
		c-2.429,0-4.858,0.924-6.707,2.773c-1.785,1.785-2.768,4.167-2.768,6.705c0,2.531,0.983,4.909,2.768,6.695l19.791,19.791
		L149.382,65.8c1.792-1.79,2.778-4.166,2.778-6.696c0-2.532-0.987-4.913-2.778-6.704c-1.793-1.793-4.174-2.78-6.707-2.78
		c-2.532,0-4.913,0.988-6.707,2.78l-0.243,0.243c-3.389,3.389-8.883,3.389-12.27,0l-0.243-0.243
		C121.364,50.551,118.934,49.627,116.506,49.627z"/>
	<path style="fill:#333333;" d="M346.163,444.911c-2.22,0-4.44-0.847-6.134-2.541l-25.914-25.902
		c-5.086-5.086-7.877-11.825-7.877-18.992c0-7.167,2.792-13.906,7.862-18.977c8.669-8.668,21.839-10.154,32.052-4.465
		c3.958-2.219,8.436-3.399,13.095-3.399c7.143,0,13.874,2.789,18.955,7.853c10.476,10.475,10.476,27.501,0.012,37.964L352.3,442.368
		C350.604,444.063,348.384,444.911,346.163,444.911z M333.079,387.998c-2.43,0-4.858,0.924-6.708,2.773
		c-1.792,1.792-2.779,4.174-2.779,6.705c0,2.531,0.988,4.913,2.78,6.707l0.229,0.228l19.56,19.552l19.781-19.781
		c3.699-3.697,3.699-9.715,0-13.413c-1.796-1.789-4.175-2.78-6.694-2.78c-2.531,0-4.913,0.988-6.708,2.781l-0.242,0.242
		c-3.39,3.389-8.883,3.389-12.271,0l-0.243-0.243C337.936,388.923,335.507,387.998,333.079,387.998z"/>
</g>
<g>
</g>
<g>
</g>
<g>
</g>
<g>
</g>
<g>
</g>
<g>
</g>
<g>
</g>
<g>
</g>
<g>
</g>
<g>
</g>
<g>
</g>
<g>
</g>
<g>
</g>
<g>
</g>
<g>
</g>
</svg>
